<svg xmlns="http://www.w3.org/2000/svg"><defs><symbol id="film" viewBox="0 0 24 24"><path stroke-linecap="round" stroke-linejoin="round" stroke-width="2" d="M19.82 2H4.18A2.18 2.18 0 0 0 2 4.18v15.64A2.18 2.18 0 0 0 4.18 22h15.64A2.18 2.18 0 0 0 22 19.82V4.18A2.18 2.18 0 0 0 19.82 2ZM7 2v20M17 2v20M2 12h20M2 7h5M2 17h5m10 0h5M17 7h5"/></symbol><symbol id="search" viewBox="0 0 12 10" fill="transparent"><path stroke="#fff" stroke-linecap="round" stroke-linejoin="round" d="M5.5 9.5a4 4 0 1 0 0-8 4 4 0 0 0 0 8Zm5 1L8.325 8.325"/></symbol><symbol id="light" viewBox="0 0 612 612"><path d="M76.5 286.875H19.125C8.568 286.875 0 295.443 0 306s8.568 19.125 19.125 19.125H76.5c10.557 0 19.125-8.568 19.125-19.125s-8.568-19.125-19.125-19.125zM306 95.625c10.557 0 19.125-8.568 19.125-19.125V19.125C325.125 8.568 316.557 0 306 0s-19.125 8.568-19.125 19.125V76.5c0 10.557 8.568 19.125 19.125 19.125zm184.002 53.167 40.182-40.182c7.401-7.401 7.401-19.393 0-26.794s-19.394-7.401-26.795 0l-40.182 40.182c-7.401 7.401-7.401 19.393 0 26.794 7.402 7.402 19.394 7.402 26.795 0zM141.716 443.509l-40.182 40.182c-7.401 7.401-7.401 19.393 0 26.794s19.393 7.401 26.794 0l40.182-40.182c7.401-7.401 7.401-19.393 0-26.794s-19.392-7.402-26.794 0zm-11.513-286.263c7.478 7.478 19.584 7.478 27.042 0 7.459-7.478 7.459-19.584 0-27.042L116.682 89.62c-7.478-7.478-19.584-7.478-27.043 0-7.478 7.478-7.478 19.584 0 27.043l40.564 40.583zM306 516.375c-10.557 0-19.125 8.568-19.125 19.125v57.375c0 10.557 8.568 19.125 19.125 19.125s19.125-8.568 19.125-19.125V535.5c0-10.557-8.568-19.125-19.125-19.125zm175.797-61.621c-7.478-7.478-19.584-7.478-27.043 0-7.478 7.479-7.478 19.584 0 27.043l40.564 40.564c7.478 7.478 19.584 7.478 27.043 0 7.459-7.479 7.478-19.584 0-27.043l-40.564-40.564zm111.078-167.879H535.5c-10.557 0-19.125 8.568-19.125 19.125s8.568 19.125 19.125 19.125h57.375c10.557 0 19.125-8.568 19.125-19.125s-8.568-19.125-19.125-19.125zM306 133.76c-95.128 0-172.24 77.112-172.24 172.24S210.872 478.24 306 478.24 478.24 401.128 478.24 306 401.128 133.76 306 133.76zm0 306.077c-73.918 0-133.837-59.919-133.837-133.837S232.082 172.163 306 172.163 439.837 232.082 439.837 306 379.918 439.837 306 439.837z"/></symbol><symbol id="dark" viewBox="0 0 1920 1920"><path d="M1294.4 1447.1c132.3 0 255.2-40.3 357.1-109.2-129.3 218.6-367.5 365.2-640 365.2-410.4 0-743-332.7-743-743.1s332.7-743 743-743c14.2 0 28.3.4 42.2 1.2-233 95-397.3 323.8-397.3 591 .1 352.2 285.7 637.9 638 637.9z"/><path d="M1294.4 1447.1c-352.3 0-637.9-285.6-637.9-637.9 0-267.2 164.2-496 397.3-591-14-.8-28.1-1.2-42.2-1.2-410.4 0-743 332.7-743 743s332.7 743.1 743 743.1c272.4 0 510.6-146.6 640-365.2-102 68.9-224.9 109.2-357.2 109.2z"/></symbol><symbol id="ukrainian_heart" viewBox="0 0 35 32"><path fill="#fecb00" d="M31.552 18.346c-.116.002-.233.009-.35.009a18.978 18.978 0 0 1-1.129-.041l.056.003a19.671 19.671 0 0 1-1.166-.108l.097.01c-.355-.042-.709-.093-1.061-.152s-.706-.126-1.057-.2a23.222 23.222 0 0 1-1.248-.287l.199.044c-.58-.141-.929-.238-1.275-.34l.234.059a27.37 27.37 0 0 1-1.31-.389l.276.077a30.844 30.844 0 0 1-1.352-.438l.33.101a53.64 53.64 0 0 1-2.555-.908l.523.177c-.677-.253-1.352-.512-2.029-.771-.676-.26-1.353-.519-2.031-.77s-1.357-.495-2.04-.723c-.016-.02-.357-.132-.699-.241l-.325-.089a9.871 9.871 0 0 0-.766-.237l-.263-.064a31.405 31.405 0 0 0-2.075-.5 14.994 14.994 0 0 0-.912-.167l-.135-.018a16.625 16.625 0 0 0-.96-.128l-.093-.008c-.279-.031-.646-.06-1.016-.078l-.045-.002a17.234 17.234 0 0 0-5.567.631l.121-.029a17.69 17.69 0 0 0-1.057.328c-.076.026-.15.059-.225.087 1.409 4.55 5.199 9.262 11.973 15.042 2.432 2.075 4.557 3.773 4.721 3.773.802 0 7.03-5.311 10.192-8.691 1.587-1.697 2.926-3.356 4.021-4.964z"/><path fill="#0068c2" d="M8.318 0C6.722.014 5.165.372 3.995 1.107.973 3.006-.045 5.061.002 9.167c.019 1.441.253 2.82.67 4.117l-.028-.099c.076-.027.15-.06.226-.087 1.615-.576 3.478-.922 5.418-.95h.013l.162-.001c.694 0 1.38.036 2.055.107l-.084-.007c.353.036.704.082 1.054.136a24.642 24.642 0 0 1 2.088.416c.345.084.69.173 1.034.269a40.417 40.417 0 0 1 2.054.631c.682.228 1.361.471 2.04.722s1.354.51 2.031.769c.676.259 1.352.518 2.029.771s1.354.5 2.032.732a45.218 45.218 0 0 0 2.055.648 31.323 31.323 0 0 0 2.09.523c.351.074.703.141 1.056.2.353.059.707.11 1.062.152s.712.075 1.069.098c.357.023.715.036 1.073.038.117.001.234-.007.35-.009 4.506-6.612 4.829-12.353.748-16.262C30.912.752 29.822.319 27.344.113c-3.873-.321-6.376.808-8.27 3.732-1.508 2.33-1.992 2.52-2.48.982-.189-.595-1.141-1.845-2.115-2.778C13.064.694 10.649-.023 8.316-.002z"/><path opacity=".218" d="M21.688 27.453c7.615-8.094 10.492-13.114 10.501-18.324.007-4.137-1.259-6.454-4.332-7.913L25.376.037l2.586.287c4.755.531 7.769 5.212 6.88 10.68-.672 4.123-3.267 8.13-8.941 13.809-6.575 6.575-9.84 8.623-4.213 2.64zM14.239 5.404C13 3.159 11.96 2.125 10.087 1.276 7.658.171 7.638.142 9.37.131c3.317-.022 8.334 4.48 7.861 7.05-.323 1.752-1.398 1.114-2.992-1.777z"/><path fill="#fff" opacity=".368" d="M6.445 2.728c-.728-.004-1.506.457-2.449 1.401-2.635 2.375-1.053 11.816.126 5.815.217-.988 1.658-2.364 2.593-3.057 2.16-1.598 2.532-2.169 1.392-3.308-.56-.56-1.096-.847-1.661-.852zm17.625.133c-1.031-.007-2.122.773-2.859 2.196-1.161 2.245-.506 2.36 1.194 2.36.796 0 1.569-.65 2.487-1.445 1.542-1.34 1.591-1.515.69-2.431a2.114 2.114 0 0 0-1.51-.679h-.002z"/></symbol><symbol id="top" viewBox="0 0 24 24"><path d="M13 7.828V20h-2V7.828l-5.364 5.364-1.414-1.414L12 4l7.778 7.778-1.414 1.414L13 7.828Z"/></symbol><symbol id="close" viewBox="0 0 28 28"><path d="m8 8 14 14M8 22 22 8" stroke-width="2"/></symbol></defs></svg>