<svg version="1.1" xmlns="http://www.w3.org/2000/svg" xmlns:xlink="http://www.w3.org/1999/xlink">
<defs>
<symbol id="film" viewBox="0 0 24 24">
<path  stroke-linecap="round" stroke-linejoin="round" stroke-width="2" d="M19.82 2H4.18A2.18 2.18 0 0 0 2 4.18v15.64A2.18 2.18 0 0 0 4.18 22h15.64A2.18 2.18 0 0 0 22 19.82V4.18A2.18 2.18 0 0 0 19.82 2ZM7 2v20M17 2v20M2 12h20M2 7h5M2 17h5M17 17h5M17 7h5"/>
</symbol>
<symbol id="search" viewBox='0 0 12 10' fill='transparent'><path stroke="#ffffff" stroke-linecap="round" stroke-linejoin="round" d="M5.5 9.5a4 4 0 1 0 0-8 4 4 0 0 0 0 8ZM10.5 10.5 8.325 8.325"/></symbol>
<symbol id='light' viewBox='0 0 612 612'><path d="M76.5 286.875H19.125C8.568 286.875 0 295.443 0 306s8.568 19.125 19.125 19.125H76.5c10.557 0 19.125-8.568 19.125-19.125s-8.568-19.125-19.125-19.125zM306 95.625c10.557 0 19.125-8.568 19.125-19.125V19.125C325.125 8.568 316.557 0 306 0s-19.125 8.568-19.125 19.125V76.5c0 10.557 8.568 19.125 19.125 19.125zm184.002 53.167 40.182-40.182c7.401-7.401 7.401-19.393 0-26.794s-19.394-7.401-26.795 0l-40.182 40.182c-7.401 7.401-7.401 19.393 0 26.794 7.402 7.402 19.394 7.402 26.795 0zM141.716 443.509l-40.182 40.182c-7.401 7.401-7.401 19.393 0 26.794s19.393 7.401 26.794 0l40.182-40.182c7.401-7.401 7.401-19.393 0-26.794s-19.392-7.402-26.794 0zm-11.513-286.263c7.478 7.478 19.584 7.478 27.042 0 7.459-7.478 7.459-19.584 0-27.042L116.682 89.62c-7.478-7.478-19.584-7.478-27.043 0-7.478 7.478-7.478 19.584 0 27.043l40.564 40.583zM306 516.375c-10.557 0-19.125 8.568-19.125 19.125v57.375c0 10.557 8.568 19.125 19.125 19.125s19.125-8.568 19.125-19.125V535.5c0-10.557-8.568-19.125-19.125-19.125zm175.797-61.621c-7.478-7.478-19.584-7.478-27.043 0-7.478 7.479-7.478 19.584 0 27.043l40.564 40.564c7.478 7.478 19.584 7.478 27.043 0 7.459-7.479 7.478-19.584 0-27.043l-40.564-40.564zm111.078-167.879H535.5c-10.557 0-19.125 8.568-19.125 19.125s8.568 19.125 19.125 19.125h57.375c10.557 0 19.125-8.568 19.125-19.125s-8.568-19.125-19.125-19.125zM306 133.76c-95.128 0-172.24 77.112-172.24 172.24S210.872 478.24 306 478.24 478.24 401.128 478.24 306 401.128 133.76 306 133.76zm0 306.077c-73.918 0-133.837-59.919-133.837-133.837S232.082 172.163 306 172.163 439.837 232.082 439.837 306 379.918 439.837 306 439.837z"/></symbol>
<symbol id='dark' viewBox="0 0 1920 1920"><path d="M1294.4 1447.1c132.3 0 255.2-40.3 357.1-109.2-129.3 218.6-367.5 365.2-640 365.2-410.4 0-743-332.7-743-743.1s332.7-743 743-743c14.2 0 28.3.4 42.2 1.2-233 95-397.3 323.8-397.3 591 .1 352.2 285.7 637.9 638 637.9z"/><path d="M1294.4 1447.1c-352.3 0-637.9-285.6-637.9-637.9 0-267.2 164.2-496 397.3-591-14-.8-28.1-1.2-42.2-1.2-410.4 0-743 332.7-743 743s332.7 743.1 743 743.1c272.4 0 510.6-146.6 640-365.2-102 68.9-224.9 109.2-357.2 109.2z" /></symbol>
<symbol id="ukrainian_heart" viewBox="0 0 35 32">
<path fill="#fecb00" d="M31.552 18.346c-0.116 0.002-0.233 0.009-0.35 0.009-0.383-0.003-0.758-0.016-1.129-0.041l0.056 0.003c-0.433-0.028-0.801-0.063-1.166-0.108l0.097 0.010c-0.355-0.042-0.709-0.093-1.061-0.152s-0.706-0.126-1.057-0.2c-0.545-0.112-0.898-0.196-1.248-0.287l0.199 0.044c-0.58-0.141-0.929-0.238-1.275-0.34l0.234 0.059c-0.623-0.171-0.967-0.278-1.31-0.389l0.276 0.077c-0.675-0.205-1.014-0.32-1.352-0.438l0.33 0.101c-1.213-0.403-1.886-0.651-2.555-0.908l0.523 0.177c-0.677-0.253-1.352-0.512-2.029-0.771-0.676-0.26-1.353-0.519-2.031-0.77s-1.357-0.495-2.040-0.723c-0.016-0.020-0.357-0.132-0.699-0.241l-0.325-0.089c-0.077-0.036-0.42-0.139-0.766-0.237l-0.263-0.064c-0.344-0.095-0.688-0.186-1.034-0.269s-0.694-0.161-1.041-0.231c-0.199-0.046-0.554-0.111-0.912-0.167l-0.135-0.018c-0.237-0.041-0.597-0.089-0.96-0.128l-0.093-0.008c-0.279-0.031-0.646-0.060-1.016-0.078l-0.045-0.002c-0.356-0.017-0.713-0.024-1.072-0.020-1.564 0.020-3.068 0.246-4.495 0.651l0.121-0.029c-0.356 0.098-0.708 0.208-1.057 0.328-0.076 0.026-0.15 0.059-0.225 0.087 1.409 4.55 5.199 9.262 11.973 15.042 2.432 2.075 4.557 3.773 4.721 3.773 0.802 0 7.030-5.311 10.192-8.691 1.587-1.697 2.926-3.356 4.021-4.964z"></path>
<path fill="#0068c2" d="M8.318-0c-1.596 0.014-3.153 0.372-4.323 1.107-3.022 1.899-4.040 3.954-3.993 8.060 0.019 1.441 0.253 2.82 0.67 4.117l-0.028-0.099c0.076-0.027 0.15-0.060 0.226-0.087 1.615-0.576 3.478-0.922 5.418-0.95l0.013-0c0.048-0 0.105-0.001 0.162-0.001 0.694 0 1.38 0.036 2.055 0.107l-0.084-0.007c0.353 0.036 0.704 0.082 1.054 0.136s0.7 0.116 1.047 0.185c0.348 0.069 0.696 0.147 1.041 0.231s0.69 0.173 1.034 0.269 0.688 0.196 1.029 0.301c0.343 0.106 0.684 0.216 1.025 0.33 0.682 0.228 1.361 0.471 2.040 0.722s1.354 0.51 2.031 0.769c0.676 0.259 1.352 0.518 2.029 0.771s1.354 0.5 2.032 0.732c0.339 0.116 0.68 0.229 1.022 0.337s0.688 0.212 1.033 0.311c0.345 0.099 0.693 0.193 1.041 0.28s0.698 0.169 1.049 0.243 0.703 0.141 1.056 0.2c0.353 0.059 0.707 0.11 1.062 0.152s0.712 0.075 1.069 0.098c0.357 0.023 0.715 0.036 1.073 0.038 0.117 0.001 0.234-0.007 0.35-0.009 4.506-6.612 4.829-12.353 0.748-16.262-1.387-1.329-2.477-1.762-4.955-1.968-3.873-0.321-6.376 0.808-8.27 3.732-1.508 2.33-1.992 2.52-2.48 0.982-0.189-0.595-1.141-1.845-2.115-2.778-1.415-1.355-3.83-2.072-6.163-2.051z"></path>
<path fill="#000" opacity="0.217903" d="M21.688 27.453c7.615-8.094 10.492-13.114 10.501-18.324 0.007-4.137-1.259-6.454-4.332-7.913l-2.481-1.179 2.586 0.287c4.755 0.531 7.769 5.212 6.88 10.68-0.672 4.123-3.267 8.13-8.941 13.809-6.575 6.575-9.84 8.623-4.213 2.64zM14.239 5.404c-1.239-2.245-2.279-3.279-4.152-4.128-2.429-1.105-2.449-1.134-0.717-1.145 3.317-0.022 8.334 4.48 7.861 7.050-0.323 1.752-1.398 1.114-2.992-1.777z"></path>
<path fill="#fff" opacity="0.367623" d="M6.445 2.728c-0.728-0.004-1.506 0.457-2.449 1.401-2.635 2.375-1.053 11.816 0.126 5.815 0.217-0.988 1.658-2.364 2.593-3.057 2.16-1.598 2.532-2.169 1.392-3.308-0.56-0.56-1.096-0.847-1.661-0.852zM24.070 2.861c-1.031-0.007-2.122 0.773-2.859 2.196-1.161 2.245-0.506 2.36 1.194 2.36 0.796 0 1.569-0.65 2.487-1.445 1.542-1.34 1.591-1.515 0.69-2.431-0.379-0.408-0.914-0.667-1.51-0.679l-0.002-0z"></path>
</symbol>
<symbol id="top" viewBox="0 0 24 24"><path d="M12.9999 7.82843V20H10.9999V7.82843L5.63589 13.1924L4.22168 11.7782L11.9999 4L19.778 11.7782L18.3638 13.1924L12.9999 7.82843Z"></path></symbol>
<symbol id="close" viewBox="0 0 28 28"><path d="M8 8L22 22" stroke-width="2"/><path d="M8 22L22 8" stroke-width="2"/></symbol>
</defs>
</svg>

